<svg width="44" height="44" viewBox="0 0 38 33" fill="none" xmlns="http://www.w3.org/2000/svg">
<path d="M18.9355 32.4875L3.27599 16.828C2.02688 15.5789 1.19415 14.1266 0.777778 12.4713C0.371565 10.816 0.376643 9.17085 0.793011 7.53584C1.20938 5.89068 2.03704 4.45878 3.27599 3.24014C4.5454 1.99104 5.99253 1.16338 7.61738 0.757169C9.25239 0.3408 10.8823 0.3408 12.5072 0.757169C14.1422 1.17354 15.5944 2.00119 16.8638 3.24014L18.9355 5.2509L21.0072 3.24014C22.2867 2.00119 23.7389 1.17354 25.3638 0.757169C26.9887 0.3408 28.6135 0.3408 30.2384 0.757169C31.8734 1.16338 33.3256 1.99104 34.595 3.24014C35.8339 4.45878 36.6616 5.89068 37.078 7.53584C37.4943 9.17085 37.4943 10.816 37.078 12.4713C36.6717 14.1266 35.8441 15.5789 34.595 16.828L18.9355 32.4875ZM18.9355 25.4194L31.0609 13.2939C31.6499 12.7049 32.0409 12.0143 32.2339 11.2222C32.437 10.4301 32.4421 9.63799 32.2491 8.84588C32.0663 8.05376 31.6804 7.37336 31.0914 6.80466C30.4719 6.19534 29.7661 5.7942 28.974 5.60125C28.1921 5.39815 27.405 5.39815 26.6129 5.60125C25.8309 5.80436 25.1252 6.21057 24.4955 6.81989L18.9355 12.2124L13.3754 6.81989C12.7458 6.21057 12.0349 5.80436 11.2428 5.60125C10.4609 5.39815 9.67384 5.39815 8.88172 5.60125C8.09976 5.7942 7.39904 6.19534 6.77957 6.80466C6.20072 7.37336 5.81482 8.05376 5.62186 8.84588C5.42891 9.63799 5.42891 10.4301 5.62186 11.2222C5.82497 12.0143 6.22103 12.7049 6.81004 13.2939L18.9355 25.4194Z" fill="#CCCCCC"/>
</svg>
